<svg xmlns="http://www.w3.org/2000/svg" xmlns:xlink="http://www.w3.org/1999/xlink" viewBox="0 0 22 22">
  <defs>
    <style>
      .cls-1 {
        clip-path: url(#clip-path);
      }

      .cls-2 {
        fill: #c1012b;
      }

      .cls-3 {
        clip-path: url(#clip-path-2);
      }

      .cls-4 {
        clip-path: url(#clip-path-3);
      }

      .cls-5 {
        clip-path: url(#clip-path-4);
      }

      .cls-6 {
        clip-path: url(#clip-path-5);
      }

      .cls-7 {
        fill: #00266a;
      }

      .cls-8 {
        clip-path: url(#clip-path-6);
      }

      .cls-9 {
        fill: #fff;
      }

      .cls-10 {
        clip-path: url(#clip-path-28);
      }

      .cls-11 {
        clip-path: url(#clip-path-29);
      }

      .cls-12 {
        clip-path: url(#clip-path-30);
      }
    </style>
    <clipPath id="clip-path">
      <circle id="Ellipse_268" data-name="Ellipse 268" cx="11" cy="11" r="11" transform="translate(3.5 -10.3)"/>
    </clipPath>
    <clipPath id="clip-path-2">
      <circle id="Ellipse_269" data-name="Ellipse 269" cx="11" cy="11" r="11" transform="translate(3.5 -7)"/>
    </clipPath>
    <clipPath id="clip-path-3">
      <circle id="Ellipse_270" data-name="Ellipse 270" cx="11" cy="11" r="11" transform="translate(3.5 -3.6)"/>
    </clipPath>
    <clipPath id="clip-path-4">
      <circle id="Ellipse_271" data-name="Ellipse 271" cx="11" cy="11" r="11" transform="translate(3.5 -0.2)"/>
    </clipPath>
    <clipPath id="clip-path-5">
      <circle id="Ellipse_272" data-name="Ellipse 272" cx="11" cy="11" r="11" transform="translate(5 -0.2)"/>
    </clipPath>
    <clipPath id="clip-path-6">
      <circle id="Ellipse_273" data-name="Ellipse 273" cx="11" cy="11" r="11" transform="translate(5)"/>
    </clipPath>
    <clipPath id="clip-path-28">
      <circle id="Ellipse_295" data-name="Ellipse 295" cx="11" cy="11" r="11" transform="translate(3.6 -20.6)"/>
    </clipPath>
    <clipPath id="clip-path-29">
      <circle id="Ellipse_296" data-name="Ellipse 296" cx="11" cy="11" r="11" transform="translate(3.6 -17.1)"/>
    </clipPath>
    <clipPath id="clip-path-30">
      <circle id="Ellipse_297" data-name="Ellipse 297" cx="11" cy="11" r="11" transform="translate(3.6 -13.8)"/>
    </clipPath>
  </defs>
  <g id="us" transform="translate(-5)">
    <g id="Group_83" data-name="Group 83" class="cls-1" transform="translate(1.5 10.3)">
      <rect id="Rectangle_148" data-name="Rectangle 148" class="cls-2" width="32.9" height="1.7"/>
    </g>
    <g id="Group_84" data-name="Group 84" class="cls-3" transform="translate(1.5 7)">
      <rect id="Rectangle_149" data-name="Rectangle 149" class="cls-2" width="32.9" height="1.7"/>
    </g>
    <g id="Group_85" data-name="Group 85" class="cls-4" transform="translate(1.5 3.6)">
      <rect id="Rectangle_150" data-name="Rectangle 150" class="cls-2" width="32.9" height="1.7"/>
    </g>
    <g id="Group_86" data-name="Group 86" class="cls-5" transform="translate(1.5 0.2)">
      <rect id="Rectangle_151" data-name="Rectangle 151" class="cls-2" width="32.9" height="1.7"/>
    </g>
    <g id="Group_87" data-name="Group 87" class="cls-6" transform="translate(0 0.2)">
      <rect id="Rectangle_152" data-name="Rectangle 152" class="cls-7" width="14" height="11.8"/>
    </g>
    <g id="Group_88" data-name="Group 88" class="cls-8">
      <path id="Path_175" data-name="Path 175" class="cls-9" d="M12.6,8.3l.1.5h.5l-.4.3.1.4-.3-.3-.4.3.1-.4-.4-.3h.6Z"/>
    </g>
    <g id="Group_89" data-name="Group 89" class="cls-8">
      <path id="Path_176" data-name="Path 176" class="cls-9" d="M10.6,8.3l.2.5h.5l-.4.3.1.4-.4-.3-.4.3.2-.4L10,8.8h.5Z"/>
    </g>
    <g id="Group_90" data-name="Group 90" class="cls-8">
      <path id="Path_177" data-name="Path 177" class="cls-9" d="M8.6,8.3l.2.5h.5l-.4.3.1.4-.4-.3-.3.3.1-.4L8,8.8h.5Z"/>
    </g>
    <g id="Group_91" data-name="Group 91" class="cls-8">
      <path id="Path_178" data-name="Path 178" class="cls-9" d="M6.7,8.3l.1.5h.5l-.4.3.2.4-.4-.3-.4.3.2-.4-.4-.3h.5Z"/>
    </g>
    <g id="Group_92" data-name="Group 92" class="cls-8">
      <path id="Path_179" data-name="Path 179" class="cls-9" d="M12.6,4.7l.1.4h.5l-.4.3.1.5-.3-.3-.4.3.1-.5-.4-.3h.6Z"/>
    </g>
    <g id="Group_93" data-name="Group 93" class="cls-8">
      <path id="Path_180" data-name="Path 180" class="cls-9" d="M10.6,4.7l.2.4h.5l-.4.3.1.5-.4-.3-.4.3.2-.5L10,5.1h.5Z"/>
    </g>
    <g id="Group_94" data-name="Group 94" class="cls-8">
      <path id="Path_181" data-name="Path 181" class="cls-9" d="M8.6,4.7l.2.4h.5l-.4.3.1.5-.4-.3-.3.3.1-.5L8,5.1h.5Z"/>
    </g>
    <g id="Group_95" data-name="Group 95" class="cls-8">
      <path id="Path_182" data-name="Path 182" class="cls-9" d="M6.7,4.7l.1.4h.5l-.4.3.2.5-.4-.3-.4.3.2-.5-.4-.3h.5Z"/>
    </g>
    <g id="Group_96" data-name="Group 96" class="cls-8">
      <path id="Path_183" data-name="Path 183" class="cls-9" d="M12.6,1l.1.5h.5l-.4.3.1.5L12.6,2l-.4.2.1-.4-.4-.3h.6Z"/>
    </g>
    <g id="Group_97" data-name="Group 97" class="cls-8">
      <path id="Path_184" data-name="Path 184" class="cls-9" d="M10.6,1l.2.5h.5l-.4.3.1.5L10.6,2l-.4.2.2-.4L10,1.5h.5Z"/>
    </g>
    <g id="Group_98" data-name="Group 98" class="cls-8">
      <path id="Path_185" data-name="Path 185" class="cls-9" d="M8.6,1l.2.5h.5l-.4.3.1.5L8.6,2l-.3.2.1-.4L8,1.5h.5Z"/>
    </g>
    <g id="Group_99" data-name="Group 99" class="cls-8">
      <path id="Path_186" data-name="Path 186" class="cls-9" d="M6.7,1l.1.5h.5l-.4.3.2.5L6.7,2l-.4.2.2-.4-.4-.3h.5Z"/>
    </g>
    <g id="Group_100" data-name="Group 100" class="cls-8">
      <path id="Path_187" data-name="Path 187" class="cls-9" d="M7.4,10.1l.1.5H8l-.4.3.2.4L7.4,11l-.4.3.2-.4-.4-.3h.5Z"/>
    </g>
    <g id="Group_101" data-name="Group 101" class="cls-8">
      <path id="Path_188" data-name="Path 188" class="cls-9" d="M5.4,10.1l.2.5h.5l-.4.3.1.4L5.4,11l-.4.3.2-.4-.4-.3h.5Z"/>
    </g>
    <g id="Group_102" data-name="Group 102" class="cls-8">
      <path id="Path_189" data-name="Path 189" class="cls-9" d="M9.4,10.1l.1.5H10l-.4.3.1.4L9.4,11l-.4.3.1-.4-.4-.3h.5Z"/>
    </g>
    <g id="Group_103" data-name="Group 103" class="cls-8">
      <path id="Path_190" data-name="Path 190" class="cls-9" d="M11.3,10.1l.2.5h.4l-.3.3.1.4-.4-.3-.4.3.2-.4-.4-.3h.5Z"/>
    </g>
    <g id="Group_104" data-name="Group 104" class="cls-8">
      <path id="Path_191" data-name="Path 191" class="cls-9" d="M7.6,6.5l.2.4h.5l-.4.3.1.5-.4-.3-.3.3.1-.4L7,6.9h.5Z"/>
    </g>
    <g id="Group_105" data-name="Group 105" class="cls-8">
      <path id="Path_192" data-name="Path 192" class="cls-9" d="M9.6,6.5l.2.4h.5l-.4.3.1.5-.4-.3-.4.3.2-.4L9,6.9h.5Z"/>
    </g>
    <g id="Group_106" data-name="Group 106" class="cls-8">
      <path id="Path_193" data-name="Path 193" class="cls-9" d="M11.6,6.5l.1.4h.5l-.4.3.1.5-.3-.3-.4.3.1-.4-.4-.4h.5Z"/>
    </g>
    <g id="Group_107" data-name="Group 107" class="cls-8">
      <path id="Path_194" data-name="Path 194" class="cls-9" d="M7.6,2.9l.2.4h.5l-.4.3.1.5-.4-.3-.3.3.1-.5L7,3.3h.5Z"/>
    </g>
    <g id="Group_108" data-name="Group 108" class="cls-8">
      <path id="Path_195" data-name="Path 195" class="cls-9" d="M9.6,2.9l.2.4h.5l-.4.3.1.5-.4-.3-.4.3.2-.5L9,3.3h.5Z"/>
    </g>
    <g id="Group_109" data-name="Group 109" class="cls-8">
      <path id="Path_196" data-name="Path 196" class="cls-9" d="M11.6,2.9l.1.4h.5l-.4.3.1.5-.3-.3-.4.3.1-.5-.4-.3h.5Z"/>
    </g>
    <g id="Group_110" data-name="Group 110" class="cls-10" transform="translate(1.4 20.6)">
      <rect id="Rectangle_153" data-name="Rectangle 153" class="cls-2" width="32.9" height="1.4"/>
    </g>
    <g id="Group_111" data-name="Group 111" class="cls-11" transform="translate(1.4 17.1)">
      <rect id="Rectangle_154" data-name="Rectangle 154" class="cls-2" width="32.9" height="1.7"/>
    </g>
    <g id="Group_112" data-name="Group 112" class="cls-12" transform="translate(1.4 13.8)">
      <rect id="Rectangle_155" data-name="Rectangle 155" class="cls-2" width="32.9" height="1.7"/>
    </g>
  </g>
</svg>
